/* XPM */
static char *result[] = {
/* columns rows colors chars-per-pixel */
"32 32 28 1 ",
"  c black",
". c #0F1013",
"X c #111216",
"o c #14161A",
"O c #16181D",
"+ c #191B1E",
"@ c #1A1D22",
"# c #1E2126",
"$ c #1F2329",
"% c #202227",
"& c #22262C",
"* c #24282E",
"= c #282A2F",
"- c #252B32",
"; c #292D34",
": c #272F38",
"> c #2A2E38",
", c #2C3036",
"< c #2C323A",
"1 c #303238",
"2 c #2F3740",
"3 c #166C5A",
"4 c #239156",
"5 c #19947A",
"6 c #2ABE6F",
"7 c #2BBF70",
"8 c #73E785",
"9 c #D8F8BE",
/* pixels */
"-<----,#:*@<:<>*;;;;:--$->::$2:-",
"-;-&&&-$:*2;;;>&>-****--------&$",
"&*$&&&$#:*-****$;=***&***--&-&*-",
"--$&-&$$-*;**%*@:**;*$&$--&&$--:",
"--&&&-&$:-*%*%%@;**-*&$$:-$$@*&*",
";--&-&&$:$%%&&*#>=&&*&$*&**$&$$$",
"-*&&$&&$-:;**%%@>***$&&&-$$$*$$$",
"@*&&$$$@&%#@#%@X*-&%$@$O$##$o$$@",
"@%&&&%$O@$$         ---O---:-&##",
"$-,--**$@  888889999  *$:-::---$",
";-::-%*@ 8888888889999 %:&:-:--#",
"$*;-*-& 888888888888888 --::*;-$",
"@-:;*= 77777777767778888 *=;;;*%",
"*2:;- 7777777777667776777 &-;*-%",
"$--- 777777777776777767777 ***&$",
"@@@O 777777777746777767777 X@@$O",
"-11 57777777777747777777777 ,;,-",
"->* 55777777777747777777777 ;-;-",
";;=1 555555555553555555777 *;&&%",
";-=;; 5555555553555555555 ,<;=;%",
"-=;1-;                   ;<=O&=%",
";;==&%&%---$@&$@--&&$$-$:;--O===",
"====%***&-&%$$$@-*%&#$##-&=&%;=%",
"1111*-:@---$@@@X---$$&#.O$%%+%=+",
"%=;*=;;@@&----*@$---:&:@&-::-;=@",
"==;;;=-;**-2>@$@--&---:$-&-*;;=%",
"=1>1--&$&-:>:&@$$--:-:2@*:*>;--%",
";1>>-=$X-->--&*$-:---:2@---:;*1&",
"@#$&@@@X&*::-*$$---:---@-&&----*",
"-;::>-;&&*&-**:$------&@-*$$&*-@",
"-::*&&&$&*&-:&*-::-:*&&@-*@*$*-@",
"o&$@@$@XOOoXO@@o$&$$$$$o@@@@@$@X"
};
