/* XPM */
static char *result[] = {
/* columns rows colors chars-per-pixel */
"32 32 32 1 ",
"  c black",
". c #0F1013",
"X c #111216",
"o c #14161A",
"O c #16181D",
"+ c #191B1E",
"@ c #181425",
"# c #1A1D22",
"$ c #1E2126",
"% c #1F2329",
"& c #202227",
"* c #22262C",
"= c #25282E",
"- c #282A2F",
"; c #262A32",
": c #292D34",
"> c #2B2F38",
", c #2C3037",
"< c #2C323A",
"1 c #2F3740",
"2 c #3A4466",
"3 c #19947A",
"4 c #2BBF70",
"5 c #5A6988",
"6 c #299582",
"7 c #79879C",
"8 c #7E9AAD",
"9 c #47C783",
"0 c #73E785",
"q c #8B9BB4",
"w c #D8F8BE",
"e c white",
/* pixels */
";<<%>><e5;:>::::*<<><$*e5::;;:<;",
"**;;;;;q5;%;;*;,%<:;:<*q5;***;:;",
";%;;%;qeq5;**;;:%*=;=;qeq5*%%%;%",
"::;%;%eeq5%*:*=,#;&**;eeq5*;;%;;",
";;%#%qeqq55;=;*;#=&*&qeqq55;**;;",
"%%%;%eeqq55=*=;<&****eeqq55;*;;:",
"$%%%qeqq5555**=<+**=qeqq5555*%;;",
"$%$oqeqq5555&*;=.# #qeqq5555*%;#",
"$$%eqqq  5552=*%O w  qq555552%%$",
"%;@qq  00 522@;e 00ww 5555522@;%",
"%=@5 444 5222@:q5 000 5555222@;:",
"%;;55   5222    q5   55552222:;%",
"%;::5552222 0000 5;;555222  ;>;#",
"%:*:;*-*#; 000000 5:==**# ww <1%",
"%%%*=&:   44444440    ;* 000 ;:%",
"O%%$X# 444444444444444 #o   +###",
"=>:>,: 4444444444444444 :,,,,,<;",
":-:::< 4444444444444444 4   *=>:",
"&=*:= 445444 4 444 4 4495444 =::",
"&:=: 44q54444 44444 444q5444 -::",
"$-*+338eq533 3 333 3 36q554 >:--",
"*--+  eeq5333333333333qeq5 *-::-",
"&--&=7eqq55           eqq55-  :-",
"+-*+#eeqq55%%;:;X###$eeqq55 44  ",
"+-:-qeqq5555:*;%#%;:qeqq55553333",
"&:::qeqq5555  ;;%%%:qeqq5555  3 ",
"&::eqqq5555523 %%%%eqqq555552> :",
"&,@qq55555522 :;%%@qq55555522@,:",
"=;@5555555222@;;%%@5555555222@&#",
"%;;5555552222;;;*:;5555552222::-",
"#;=%55522222>:::=:=;55522222=;>;",
".#%O#&#+o%%%%*=%o##O.X@oo%###**o"
};
