/* XPM */
static char *result[] = {
/* columns rows colors chars-per-pixel */
"32 32 27 1 ",
"  c black",
". c #0E0F13",
"X c #0F1013",
"o c #111216",
"O c #14161A",
"+ c #16181D",
"@ c #191B1E",
"# c #1A1D22",
"$ c #1E2126",
"% c #1F2329",
"& c #202227",
"* c #22262C",
"= c #24282E",
"- c #282A2F",
"; c #252B32",
": c #292D34",
"> c #272F38",
", c #2A2E38",
"< c #2C3036",
"1 c #2C323A",
"2 c #303238",
"3 c #2F3740",
"4 c #19947A",
"5 c #2ABE6F",
"6 c #2BBF70",
"7 c #73E785",
"8 c #D8F8BE",
/* pixels */
";1;;;;<$>=#1>1,=:,;:>>;%;,>;=13*",
";:;***;%>=3;::,*>;--=*==;;;;;;**",
"*=%***%$>=;=;==&:-=*====;;;%;**;",
";;%*;*%%:;;==&=#:==:;#=%;;%;%=>>",
";;***;*%>;=&=&&#:===;*%%>;%%#=*=",
":;;*;**%>*&&**=$,;=*;&%=*==%*%%%",
";=**%**%;;:***&#,===%%&*;%%%=%%%",
"#=**%%%#*&&#$&#o;;&&%%%+%$$%O%%#",
"#&***&%+#%%         ;;;+;;>;;%%$",
"%;<;;==%#  777778888  *%>;;>>;;%",
":;>>;&=# 7777777777888 &>*>>1*;$",
"%=:;=;* 777777777777777 ;;>;=<;%",
"#;>:=- 66666666666667777 =-::;;&",
"=3>:; 6666666666656665666 *-:=;%",
"%;;; 666666666665666656666 ==**%",
"###+ 66666666 6656 6656666 O##%+",
";22 466666666 6656 66666666 1:1=",
";,= 446666666 6666 66666666 ;--:",
"::-2 44444444 4444 4444666 =;==&",
":;-:: 4444444444444444444 11:=:&",
";-:2;:                   :1-@*-$",
"::--*&*&;;;%#*%#;;**%%=%,:;-@--*",
"----&====;**#=%#;***$%$$:*;*&--&",
"2222=;>#;;;####o;;;%%*$X+%&$@*-@",
"$-:--;:##*;;;;;#%;*;;;>%*;>::;;@",
"---,,-::==>,>*#%;;;;;;;#;*;=,;-&",
"-2,2:;*#*;>,;%%%%;>>;>3#=>=,:;:&",
":2,,;=&O==3;;*%%;;;;;>3#;;;>:=2*",
"###*###o%=>>;=%%;;;>>;=#;**;;;;*",
",>,>,::**=*;;=>%;;;;;;=#=*%%*;;%",
";>>=***#%;*;;=*;>;;>=%=#;=%**=;#",
"O*%##*#o+#oo+##O%;*%%%%O####+%#."
};
