/* XPM */
static char *result[] = {
/* columns rows colors chars-per-pixel */
"32 32 25 1 ",
"  c black",
". c #0E0F13",
"X c #111216",
"o c #14161A",
"O c #16181D",
"+ c #191B1E",
"@ c #1A1D22",
"# c #1E2126",
"$ c #1F2329",
"% c #202227",
"& c #22262C",
"* c #24282E",
"= c #282A2F",
"- c #252B32",
"; c #292D34",
": c #272F38",
"> c #2A2E38",
", c #2C3036",
"< c #2C323A",
"1 c #303238",
"2 c #2F3740",
"3 c #19947A",
"4 c #2BBF70",
"5 c #73E785",
"6 c #D8F8BE",
/* pixels */
"-<----,#:*@<:<>*;;->:--$->:-&2:-",
"-;-&&&-$:*2-;;>&>-*=**-*-------$",
"&*$&&&$#>*-&-**$;==&*&*----&-&&-",
"--$&-&$$-*;**%*@;**;*$*@--$*$*-:",
"--&&&-&$:-*%&%*@;***-&$$--$$@***",
";--&-&&$:$%&&&&@:-*&-%$*-**$&$$$",
"-*&&$&&$-;;**&&@>***$$%*-$#$$$$$",
"@*&&$$$@&%%@@%@X--%%$$$O$##$@$$@",
"@%&&&%$O@$$         ---O--:-:$$$",
"$-,--**$@  555556666  *$:--:---$",
";-::-%*@ 5555555555666 %:$::;--#",
"$*;-*-& 555555555555555 --:--;-$",
"@-:;*= 44444444444445555 **;;--%",
"*2:;- 4444444444 4444 444 &=;*-%",
"$--- 44444444444 4444 4444 **&&$",
"@@@O 44444444444 4444 4444 o@@$O",
"-11 344444444444 4444 44444 ,;,*",
"-;* 33444444444444444444444 ;;;-",
":;=1 333333333333333333444 *;%&%",
"-;=;; 3333333333333333333 <<;*,%",
"-=1,->                   ;<*+&=%",
"=,==&%&%---$@&$@--&&$$&$:;-=+==&",
";===%****-&&@*$@-&&&#$$#-&-=%==&",
",111*-:@---@@@@X---$$&#.O$%@+&=+",
"@=;==>-@@&---*-@$-&---:@&-::-;=+",
"=1;===->*--2:&$@----:&:$-&-*>-;%",
"=,11>*&@&-::-$@$$-::-:2@-:*<>-=%",
"=1>>=-$o&-2--&*$-----:2@-----*1&",
"@$@&@@@X**:-**$$---:---@-&&--;-*",
"-:>:>->&$&&--*:$------&@*&&$%--$",
"->--&&$@&-&--*&-:--:*&&@-*$$$**@",
"o&&@@$@oO@X.@@@o$-&$$$$o@@@@@$@."
};
