/* XPM */
static char *result[] = {
/* columns rows colors chars-per-pixel */
"32 32 26 1 ",
"  c black",
". c #0E0F13",
"X c #111216",
"o c #14161A",
"O c #16181D",
"+ c #191B1E",
"@ c #171B20",
"# c #1A1D22",
"$ c #1E2126",
"% c #1F2329",
"& c #202227",
"* c #22262C",
"= c #24282E",
"- c #282A2F",
"; c #252B32",
": c #292D34",
"> c #272F38",
", c #2A2E38",
"< c #2C3036",
"1 c #2C323A",
"2 c #303238",
"3 c #2F3740",
"4 c #19947A",
"5 c #2BBF70",
"6 c #73E785",
"7 c #D8F8BE",
/* pixels */
";1;;;;;$,;#1:11=;::;;;;%;11;%31=",
";:;*==;%>=3;::,&,:=;;=;;;;;;;;;%",
"*=%**%%$;;;;;==&::==***;;;;%>*=;",
";;%*==%%;;;***=#:==:;%*%;;%=$=;>",
";;=*;=;$1;=&*&*$:*;=;*%%>;%%@===",
";;====%$,%%&***&1;****%*=;%%%%%%",
":=%%%==%:;:*=&&@,===*$*==%%%%%%%",
"#*==%%%@*&&##*#X=;&&$%$O%%$%@$$$",
"@%***%%O@%%*         ;;O>>;;>*$$",
"*;;::==%#@  666667777  $>%>;<;;%",
":;,,=&=@* 6666666666777 ;;><<;=%",
"%;;;*:=@ 666666666666666 ;>;=;;%",
"#;,;=;= 55555555555556666 =::;;*",
"*3,:;: 555 5555 5555555555 ::=:$",
"*;;:& 5555 5555 55555555555 =*&%",
"@#@@# 5555 5555 55555555555 ##%O",
";1<< 45555 5555 555555555555 <<;",
"::-* 44555555555555555555555 ::=",
"::-2= 444444444444444444555 -***",
"::-::: 4444444444444444444 1:=:%",
"-::2:::                   1=+*-&",
"-:-**&*&;;;%#**@;;**%%=%:::-+--*",
"2---&====;**#=%#;=**$%$$;*:*&--&",
":222=;>#;;;###@X;;;$%*$.o%&&+*-+",
"#-<--;:##*;>;=;#%;;;;;>#%;>,;::+",
"-2::-;=,*;>,>*%#;;*;;;>%;=;=:::#",
"-<,2;;=#*;>,;*#%%;;>;>3#;>;1::-&",
"-2,,;-%o*=3;=*=%;>;;;>3#;;;;;=1*",
"###*###X*=>>;*%%;;;>>;=#;=*;;;;*",
">,,,,;;=*=*=;=>*;;;;;;*#=**&*;;%",
";,:=***%*;*;;===>>;>=%*#;=&**=;@",
"o**##%#XOooX@#@o%**%%%%o###@@%@X"
};
