/* XPM */
static char *result[] = {
/* columns rows colors chars-per-pixel */
"32 32 76 1 ",
"  c #040506",
". c #050608",
"X c #090A0D",
"o c #140E0F",
"O c #1E130F",
"+ c #0B0D12",
"@ c #0E1116",
"# c #0F1218",
"$ c #131316",
"% c #191211",
"& c #13151A",
"* c #16191E",
"= c #191A1E",
"- c #200F09",
"; c #231107",
": c #22120B",
"> c #29160D",
", c #361509",
"< c #39170C",
"1 c #35180D",
"2 c #3A1A0D",
"3 c #221715",
"4 c #221817",
"5 c #2B1911",
"6 c #241D1C",
"7 c #2B1C1A",
"8 c #3C1F12",
"9 c #2E211E",
"0 c #352015",
"q c #3C2011",
"w c #31221E",
"e c #151921",
"r c #1B1D23",
"t c #1D2126",
"y c #1E2329",
"u c #212227",
"i c #2B2323",
"p c #22262C",
"a c #24282E",
"s c #2B292D",
"d c #332522",
"f c #362924",
"g c #312B2D",
"h c #252B32",
"j c #292D34",
"k c #272F38",
"l c #2A2E38",
"z c #2C323A",
"x c #303238",
"c c #472B16",
"v c #4B2C17",
"b c #532413",
"n c #582D17",
"m c #5A2D19",
"M c #57351D",
"N c #5A301C",
"B c #672B16",
"V c #662B19",
"C c #66361C",
"Z c #68361C",
"A c #6E3C1E",
"S c #703C1E",
"D c #6B3D20",
"F c #704927",
"G c #704928",
"H c #7F532E",
"J c #7E5430",
"K c #2F3740",
"L c #834726",
"P c #844827",
"I c #8C532D",
"U c #8A5934",
"Y c #925C33",
"T c #A26D3E",
"R c #A77444",
"E c #A87341",
/* pixels */
"hzzhhhhtzatzzzzahjjjjhhpazzhyKzh",
"hjpapaayzpzhhjjplhahaahhhhhhhhhy",
"paypppytlhhpaaaujhaappapahhyhayh",
"hhpyaayyiwspauarjaaja69shhyayakk",
"hhaahayyfRduauptjahah5Jshhpyeapa",
"haapaaaydY9ppuptzhaua5Ighapyayyy",
"hhypyayywLdpuuu=jauau>Dsyyyypyyy",
"rpaayyyr7LvGNNNmmNNNb,Ciyyty&tyt",
"rypayyy#3PcDmmnmmmnmb1C=ykkhkyyt",
"uhhhhhhr3T3$$$$$&%*&&1A=yhkkkahy",
"lhlp#+@+5E4###&$&**e&>H9*###yhay",
"yhhy+#@X3E7rtttrttttt>H9####yjhy",
"rt&###@X-L,2222222<,,1H3+@@###ty",
"ph####@X-LvFGCmmNnmbb,C3+@@@#@yy",
"yy@+.   -P3 . .  ... 0C4 .  +@*y",
"e*XX    -PO          ;C3    X+**",
"hy......:P%  .   ....;C4 .....rh",
"hr   .. :Iqcq8882q22<1C4......rh",
"jjpt.    EMUASAASAZBV2Co....rupu",
"jjsu .  ..OO%%Oo%%%O%>5  ...raju",
"asjjpau=...             rahu&aau",
"jjjsaup=..              yjja=ssa",
"sjsspapptytrrtr*prtt*r*rhyjatjsu",
"jxxlphlrhhht*rr$hhhyypt+eyur*as*",
"usjsjahtrphhhhaeyhhhhhhyyhklhjj=",
"jljjhjhhahhzhptyhphhhhhyhahajjst",
"sjlxjhatyhhzhpyyykhkhkKyhkaljjjt",
"jlxlhhu$hhKkhhyyhhhhhkzyhhkhhhzu",
"ryyprrr$yahhhppyhhhkhhhehpphhhhp",
"hhlkjhhppaphhpjphhhhhhaehautphhy",
"hjhhpppyahphjahakhhkpppyhatpuhhr",
"$ayrrry$&*&$&tr&yhyyuyy&ertreyr+"
};
