/* XPM */
static char *result[] = {
/* columns rows colors chars-per-pixel */
"32 32 21 1 ",
"  c #0F1013",
". c #111216",
"X c #14151A",
"o c #16181D",
"O c #191A1E",
"+ c #1B1D22",
"@ c #1E2126",
"# c #1F2329",
"$ c #202227",
"% c #22262C",
"& c #25282E",
"* c #282A2F",
"= c #232730",
"- c #262B32",
"; c #292D34",
": c #272F38",
"> c #2A2E38",
", c #2C3037",
"< c #2C323A",
"1 c #303238",
"2 c #2F3740",
/* pixels */
"-<-----@<=@,-<<%;;;;---#-<<:#<<-",
"-;&&&&&#>%2-;;>%>-&-&&-=-:-----#",
"%-%%&##@---%-&&$;-&&&%&=&--#:##-",
"==#%-&##;--&&$&+;%&;=#%@--#&#&::",
"-=&&&&=#<-=%%$%+;&&&-%%#-:##+-&#",
":&&&&&##-##$%%%#<-&%&%#=--######",
"-&######;;;%%%$+>&&&##%%##@#&###",
"+&-&###@%$$++%+.&-$$@#@o##@#o##@",
"+#%&%$$+++#=%#+o#&=---=X-::-:%@@",
"#----&=#+++#=$&$=------#:--,:&&#",
",-><-$%+%+==-#%$&:;<--=#:#::,&&#",
"#&--%;%O%%%=---%-:--&-&@&-,:&:&%",
"+-<--&&O#=%>---%&&,--%@+%&*;,&-%",
"=<>;--*+%#=---%%%,--%%&@%*%*-&-$",
"%--&%$%+=-==-&-$#--&@-&+**%*&%%#",
"o++++OOX+##+##+.X@+OX@$.O@O.+@@o",
"-<,,,,,,&;<-&,*@--;-::&##<;,,;,&",
"-,&%,**&--:-&&*%:<&%&&&&&:<;;;;-",
",;*1&&&$&,-##-:#-&%%####---&-%%%",
";;**,*&%-&--#-%#&&$@--##&,,1;&;$",
"&*1,;;*%:--##%#+&%@#&&-#>;>&O%*+",
"*;**$%&%-&&#@%#O-&&%@@-#>;;*O***",
"****%%&#&-&###@@;&%%@#@#-#-*$**$",
",111&=:@---@O@O.--&###@ o#$+O**O",
"+*;*--;+@#::&&&O#===---##-:,-;*O",
"*1;;;*-;#-:<:#@#--==-=-#-=-=;;;$",
";;11;-&+#-:::%###:::::2#=<=<;;*$",
"*1>>-=$X--<:&%##=-=:=:<@-----&<%",
"+##%+++.#-,,&&##:--=---+-##----&",
"-->:;;;&#&#-&&;&---:-==+=&&#%=-#",
"-;:=%%%+#-&*:&&&::-:&##@-=@##==@",
".=#++%+.oo. o@OX@&&####X+#@+O@+ "
};
