/* XPM */
static char *result[] = {
/* columns rows colors chars-per-pixel */
"32 32 120 2 ",
"   c #060606",
".  c #0D0E11",
"X  c #011415",
"o  c #0F1013",
"O  c #0F171B",
"+  c #021D1D",
"@  c #091D1E",
"#  c #111216",
"$  c #14161A",
"%  c #16181D",
"&  c #181A1E",
"*  c #101C20",
"=  c #1A1D22",
"-  c #032323",
";  c #0B2324",
":  c #012C2C",
">  c #0B2B2B",
",  c #132023",
"<  c #1D2126",
"1  c #1F2329",
"2  c #023434",
"3  c #023C3B",
"4  c #0B3E3D",
"5  c #193337",
"6  c #1B3739",
"7  c #202226",
"8  c #22262C",
"9  c #24282E",
"0  c #282A2F",
"q  c #252B32",
"w  c #292D34",
"e  c #272F38",
"r  c #2A2E38",
"t  c #2C3037",
"y  c #2C323A",
"u  c #303238",
"i  c #2F3740",
"p  c #014241",
"a  c #024C4B",
"s  c #0A4E4A",
"d  c #124D4D",
"f  c #1F4A48",
"g  c #09514E",
"h  c #015151",
"j  c #035A57",
"k  c #015C5A",
"l  c #085D5C",
"z  c #145753",
"x  c #125C5B",
"c  c #01625F",
"v  c #036464",
"b  c #0A6462",
"n  c #0F6965",
"m  c #026E6E",
"M  c #057777",
"N  c #0E7572",
"B  c #0A7D7C",
"V  c #177E75",
"C  c #336B69",
"Z  c #5E7475",
"A  c #05847E",
"S  c #1C827B",
"D  c #058482",
"F  c #098786",
"G  c #068988",
"H  c #108B85",
"J  c #1F8B86",
"K  c #04938F",
"L  c #09948E",
"P  c #10938C",
"I  c #1E918C",
"U  c #149493",
"Y  c #1B9B94",
"T  c #119D9C",
"R  c #208E86",
"E  c #0CA59F",
"W  c #13A39F",
"Q  c #0FACA6",
"!  c #04AFAD",
"~  c #0AABA8",
"^  c #1AABA5",
"/  c #1DADA8",
"(  c #05BDBC",
")  c #15B5B0",
"_  c #11BDBA",
"`  c #31ADA6",
"'  c #3BA9A8",
"]  c #7B9999",
"[  c #44BEBB",
"{  c #1EC2BC",
"}  c #2BC6BC",
"|  c #19D3CD",
" . c #1ED4D2",
".. c #2CCAC3",
"X. c #24D3CC",
"o. c #27DBD5",
"O. c #2CDBD5",
"+. c #39D9D4",
"@. c #33E3DD",
"#. c #1AF1E5",
"$. c #28E5E2",
"%. c #3EEDE7",
"&. c #26F5ED",
"*. c #34F4EE",
"=. c #27FFFC",
"-. c #39F5F5",
";. c #31FAF4",
":. c #4ECBC7",
">. c #58E7E3",
",. c #56FBF7",
"<. c #5EFEFA",
"1. c #64F6EE",
"2. c #79FFFF",
"3. c #9ADEDF",
"4. c #BDD1D1",
"5. c #86FFFF",
"6. c #92FFFE",
"7. c #9CFFFF",
"8. c #CBD0D1",
"9. c #C7D8D8",
/* pixels */
"q y q q q q q < y q = y q y y 9 q w w w e q q 1 q y e q 9 y y q ",
"q w q 8 9 9 q 1 r 8 i q w w w 8 r q 9 q 9 9 q q q q q q q q q 1 ",
"8 9 1 8 8 1 1 < q q q 8 q 9 9 7 w q 9 9 8 8 8 q 9 q q 1 q 1 8 q ",
"q q 1 8 q 9 1 1 w q q 9 9 7 9 = w 9 9 w q 1 8 < q q 1 9 1 q q e ",
"q q 8 9 9 9 q < y q 9 7 0 7 8 < w 8 q 9 q 8 8 1 q q 1 1 = q 1 q ",
"q q 9 9 9 9 1 < q 1 1 8 8 8 7 7 y w 9 8 9 1 1 8 q q 9 1 8 1 1 1 ",
"w 9 1 1 1 9 8 1 q q w 8 8 8 7 & r 9 8 9 1 1 8 9 q 1 1 1 1 1 1 1 ",
"= 8 9 9 1 1 1 = 8 8 7 = = 8 = # q q 7 7 < 1 1 $ 1 , < 1 % < 1 < ",
"= 1 8 8 7 1 1 % = = = 9 8 < < % 1 9 8 w q q q $ q q q e q 1 < < ",
"1 q q w w q 9 1 1 = = 1 < 0 0 & 1 = 8 q q q 9 1 e q q r y q q 8 ",
"r q r r 9 7 8 = 8 # 6 > f 3.] 4.9.8.Z C d . 1 < e 1 y y t 9 9 < ",
"1 q q q 9 q 8 % 5 x [ H } 2.7.7.6.6.5.O.X.c - . q q q q q w q 1 ",
"= q r q q q 9 ; U ` I V { %.<.;.&.,.*.@.^ h A a < 9 0 w w q q 8 ",
"8 i r w w = 4 n J :.-.Y ....+.o.%.>.X.W b N j p + 7 7 0 w 9 q < ",
"8 q q 9 8 = g / $.@.{ V z R R Y { E W B U { A p : ; 7 9 9 9 8 < ",
"% = = & = $ ; N T N H 1.+.$.) S ' b h k L E F l 2 + % # = = < % ",
"q t r t r w $ p p M ) =.#. .P P } | K c j G m p + , q t t w t q ",
"w r 0 8 w q   = 2 B D ~ ! _ F s Q ( ! m a k p -   q u w w w w 9 ",
"w w 0 u 9 0     * : a v v F M h M D F b 3 2 X     % w 8 w 8 8 8 ",
"w w 0 w 0 w 0       @ ; 2 3 p : 3 2 2 : @ O       & t y w 9 w 7 ",
"0 w w u w w w 8                                 r w r 9 % 0 0 7 ",
"0 w 0 0 8 1 7 8 w q =                   & % 9 1 r w w 9 % 0 0 8 ",
"w 0 0 0 8 8 q 8 8 w 8 8 = 8 = = q q 1 8 < 1 < 1 q 8 w 8 7 0 0 7 ",
"w u u u 8 q e = q 9 q = = = = # q q q 1 < 8 < o $ 1 7 7 % 0 0 & ",
"7 0 w 0 w 0 w = = 8 q q 9 q q = 1 q 8 q q q e = 1 q e w q w 0 & ",
"0 w w w 0 0 q w 8 q e i r 1 1 = q 8 q q q q e 1 q 9 q q r q w 7 ",
"w t t u r q 8 = 8 q q i q 1 1 1 8 q q e q e i = q e 9 y w w 0 7 ",
"0 u r r 0 8 8 $ 8 8 i q q 8 8 1 q e q q 5 e i = q q q q q q t 8 ",
"= = = 8 = = = # 8 9 r e 9 9 1 1 q 8 e q q q q = q 8 9 q q q q q ",
"q q i w r q r 8 8 9 8 9 0 9 r 8 q q q q q q 8 = 9 9 1 1 1 q q < ",
"q e w q 8 8 8 = 8 0 8 0 r 8 9 9 e e q e 9 8 8 = q 9 = 8 1 9 q = ",
"# q 8 = = 1 = # % * # # $ 7 = * = 8 8 8 1 1 1 $ = = = = = 1 = . "
};
