/* XPM */
static char *result[] = {
/* columns rows colors chars-per-pixel */
"32 32 26 1 ",
"  c black",
". c #0E0F13",
"X c #0F1013",
"o c #111216",
"O c #14161A",
"+ c #16181D",
"@ c #191B1E",
"# c #1A1D22",
"$ c #1E2126",
"% c #1F2329",
"& c #202227",
"* c #22262C",
"= c #24282E",
"- c #282A2F",
"; c #252B32",
": c #292D34",
"> c #272F38",
", c #2A2E38",
"< c #2C3036",
"1 c #2C323A",
"2 c #303238",
"3 c #513916",
"4 c #2F3740",
"5 c #8B5D19",
"6 c #CC9138",
"7 c #DBB883",
/* pixels */
";1;;;;<$>=#1>1,=::;:>>=*=4>;*44%",
";:;***;%>=4;::,*,;-;=====;;;;;**",
"*=%***%$,=;*;==%:--*=*=;;;;*;%*;",
";;%*;*%%;=:==&=#:==:;#=#=;**%;>>",
";;***;*%>;=&*&=#:===;*=%>;*%#**;",
":;;*;**%>%&****#>;=*;&#=*;*%**%$",
";=**%**%;::==**#,;==%%&=;%$%=%%%",
"#=**%%%#*&&##&#o=;&&%%%+*$$%+$%#",
"#&***&%+#%%         ;;;+*>;;>%%#",
"%;<;;==%#  666667777  *%>;>>>;;%",
":;>>;&=# 6666666666777 &>*>><;;%",
"%=:;=;* 666666666666666 *;>;;;;%",
"#;>:=- 55555555555556666 ==::;;&",
"=4>:; 5555555555555555555 *-:=;%",
"%;;; 555555555555555555555 ==*&%",
"###+ 55555555 5555 5555555 O##$#",
";1< 355555555 5555 55555555 <:<;",
":,= 335555555 5555 55555555 ::;;",
"::-2 33333333 3333 3333555 =:==&",
":;-:: 3333333333333333333 11:=:&",
";-22:,                   :<-+*-&",
"-:--*&*&>=;%#*%#;;**%%%%>::;+---",
"----**===>=*#*%#:**&$%%%;*;*&--&",
"2222==>#==;####O;;;%%*$X+%&&@&-@",
"#-<--::##*=;;==#%;%;;;>#*;>>::-#",
"-<-,--=>==>4>*%#;;;;;;;%;*;=::;#",
":<,2:;=#*;>,=*#*%>;>>>4#;>=1:;:&",
"-<,,;-%O*=4;;*;#*>;;;>4#;;;;:=2*",
"###*###o*=>>=**%;;;>;>*#=*=;;;;*",
";,,,,;;****=;*>*;;;;=;;#==%%*=;%",
">,;;***%*;*;>==*>>;>=**#>=#%===#",
"o**##%#oO#o.###O%**%%%%O#####%#."
};
