/* XPM */
static char *result[] = {
/* columns rows colors chars-per-pixel */
"32 32 78 1 ",
"  c black",
". c #180F0B",
"X c #1B110B",
"o c #0E0F13",
"O c #0F1013",
"+ c #111316",
"@ c #14151A",
"# c #16181D",
"$ c #191A1E",
"% c #21160E",
"& c #3C1E0F",
"* c #241912",
"= c #2C1C15",
"- c #251D1A",
"; c #2E211C",
": c #352216",
"> c #3F2111",
", c #33241B",
"< c #1B1D22",
"1 c #1E2126",
"2 c #1F2329",
"3 c #2A2623",
"4 c #2B2925",
"5 c #22262C",
"6 c #25282E",
"7 c #2A2B2D",
"8 c #382D27",
"9 c #322F2A",
"0 c #392D28",
"q c #36332E",
"w c #3C332B",
"e c #262B32",
"r c #292D33",
"t c #2A2E38",
"y c #2C3037",
"u c #2C323A",
"i c #373732",
"p c #383734",
"a c #303238",
"s c #3F3C39",
"d c #422412",
"f c #473122",
"g c #4C3425",
"h c #4D3A2C",
"j c #523827",
"k c #533B2C",
"l c #4E3F33",
"z c #463F39",
"x c #4F4235",
"c c #45423A",
"v c #4C453E",
"b c #574435",
"n c #54463A",
"m c #554839",
"M c #2F3740",
"N c #474541",
"B c #4A4741",
"V c #4D4A44",
"C c #534B43",
"Z c #575149",
"A c #5B554D",
"S c #5E584F",
"D c #5E5951",
"F c #645648",
"G c #605B52",
"H c #646056",
"J c #676159",
"K c #6E6C62",
"L c #706D64",
"P c #747267",
"I c #75736A",
"U c #7B766F",
"Y c #7A7771",
"T c #7D7B73",
"R c #19947A",
"E c #2BBF70",
"W c #73E785",
"Q c #D8F8BE",
/* pixels */
"euueeee2te1ttuu5errrtee2ette5Mu5",
"er5e55e2t5Meeer5ye6e66eeeeeeee55",
"56225521ree5e4kkjh66626eeee2e55e",
"ee25e522e6r56AIPPP8r626<ee2e2eet",
"ee565ee1ue556FTTTU06e552ee22<e5e",
"ee65e521e5255mHHGH:55525ee522222",
"r555255 rrr55mHGGG,65156e2222222",
"<e5525 Q kbkjbGGGHgjkkjh5<22#121",
"<25555 QQ PPLKDDGGSKKKKKceeet221",
"2erer WWQ TTIKGDGJPIYYYYheettee2",
"yett6 RW ASSDSAASSAAAAAA>2uuuee2",
"2eee6 RW AAAADAAAAAAZZZD>tye2y22",
"<eueee R ddddkAAAZddd>>&e4eryee2",
"5Mteee6  56eekAAAA,e555<265et6r2",
"2eee555<5e65ekAAZA=e1e6<e6545222",
"<<<#<$@@<22<2lZCCA=<@12O<1$@112#",
"euuyyyyr6rtrehCCCA=er  55ururrte",
"ry65re76eere6hCCCZ;6 QQ eearrrre",
"rr6a6465ee-33kCCCZ:;*WWW er67555",
"rrrrre65e=vzCkCvCZfhw,RW ryur665",
"6r9arre5u,VBChnvBZgzc,  rta6$571",
"6rr65255 ,VVVhCvnZkcc:55tte6$676",
"r7r754  E;CVVhxxlCkcc,5265r62775",
"raar6 RRE,ZV  mmnCAcc:1O<<11$56$",
"1r77rr   ,B WW VBBNqq;e12   err<",
"r7rre6rr5-q WWW Bcsi4-e2 EQQ  r1",
"rtaar6515* EEEE BBcip-t EEEEEE r",
"rttte61@5Xq  R qqiq44*M< RRREE 5",
"<2<51<<+2X944 qqiqq33*6<e  RR e6",
"etttrre55X9443qqqqq33*6<e55  ee1",
"etee555<2eXXX.%%**XX.55<e6122ee<",
"@55<<2<@#@@+@1$@1655222@<<1<#1<o"
};
