/* XPM */
static char *result[] = {
/* columns rows colors chars-per-pixel */
"32 32 24 1 ",
"  c #0F1013",
". c #111216",
"X c #14161A",
"o c #16181D",
"O c #191A1E",
"+ c #181425",
"@ c #1B1D22",
"# c #1E2126",
"$ c #1F2329",
"% c #202227",
"& c #22262C",
"* c #25282E",
"= c #282A2F",
"- c #262A32",
"; c #292D33",
": c #2B2F38",
"> c #2C3037",
", c #2C323A",
"< c #303238",
"1 c #2F3740",
"2 c #3A4466",
"3 c #5A6988",
"4 c #8B9BB4",
"5 c white",
/* pixels */
"-,1$-:153-;:;-;;$,,:,#-53;;---,-",
"&&-----43-$--*->$,-;-,&43&&&&-:-",
"-&&-$-4543&&&*->$**-*-4543&&$$-$",
";;-$*$5543$---*>@&&&&-5543&--$--",
"*-*@$454433---&-#&%&%454433-&&--",
"$$$&$554433&$$;,#&&&&554433-&---",
"$$$$45443333&&-,O&&*45443333$$-;",
"#$#X45443333&&-&.@%@45443333&-$#",
"##$5444333332&-#X##5444333332$$#",
"$-+4433333322+-53&+4433333322+-$",
"#-+3333333222+;43&+3333333222+--",
"$--3333332222-4543-3333332222;-$",
"$--;33322222;:5543;-33322222-:-@",
"$--;-&=&@*&&-454433;-&&&@*-->,1$",
"$$$$*&==@--#&554433-&--&#%$&-&;$",
"@###.@#O.%@X45443333@$&@Xoo@@@@@",
"-;:;,;,$$;;;45443333-,-*>>>>>>,=",
"-;=;;,---$-5444333332;--*-==**:;",
"&&*;&;-53$+4433333322+-53=&*,*;;",
"%;*;,>;43&+3333333222+-43=;>;--;",
"%=&O-,4543-3333332222-4543;=<>==",
"&==O;-5543$$33322222$&5543&&==;=",
"&==%$454433#$$--@#&$$454433%==;=",
"O=&O@554433$$---.@@@$554433&<<<<",
"O=;*45443333---$@&--45443333=<=%",
"%=;;45443333----##$;45443333==;=",
"%=;5444333332--$$$$5444333332:<=",
"&<+4433333322+--$$+4433333322+:=",
"*-+3333333222+--$$+3333333222+%@",
"@--3333332222------3333332222:;-",
"@-*&33322222:-;:***-33322222--;-",
" @$X@#@@X$$#&&*$X@$X..X@.@$@@&&X"
};
