/* XPM */
static char *result[] = {
/* columns rows colors chars-per-pixel */
"32 32 233 2 ",
"   c gray8",
".  c #151515",
"X  c #161616",
"o  c gray9",
"O  c #181819",
"+  c gray10",
"@  c #1B1B1B",
"#  c gray11",
"$  c #1D1D1D",
"%  c #1E1E1E",
"&  c #1E1E1F",
"*  c gray12",
"=  c #1F1F20",
"-  c #202020",
";  c #212120",
":  c #202021",
">  c gray13",
",  c #222222",
"<  c #232322",
"1  c #232323",
"2  c gray14",
"3  c #252525",
"4  c #252626",
"5  c gray15",
"6  c #262627",
"7  c #272727",
"8  c #272728",
"9  c #282828",
"0  c #282829",
"q  c gray16",
"w  c #29292A",
"e  c #29292B",
"r  c #2A2A2A",
"t  c #2A2A2B",
"y  c #2A2B2B",
"u  c gray17",
"i  c #2A2A2C",
"p  c #2A2B2C",
"a  c #2B2B2C",
"s  c #2B2B2D",
"d  c #2C2C2C",
"f  c #2C2C2D",
"g  c #2C2D2D",
"h  c #2D2D2D",
"j  c #2C2C2E",
"k  c #2C2D2E",
"l  c #2D2D2E",
"z  c #2D2D2F",
"x  c #2D2E2F",
"c  c gray18",
"v  c #2E2E2F",
"b  c #2E2F2F",
"n  c #2F2F2F",
"m  c #2D2E30",
"M  c #2E2E30",
"N  c #2F2F30",
"B  c #2F2F31",
"V  c gray19",
"C  c #303031",
"Z  c #303131",
"A  c #313131",
"S  c #303032",
"D  c #303132",
"F  c #313132",
"G  c #303133",
"H  c #313133",
"J  c #313233",
"K  c #323232",
"L  c #323233",
"P  c gray20",
"I  c #323433",
"U  c #323234",
"Y  c #333334",
"T  c #333335",
"R  c #333435",
"E  c #343434",
"W  c #343435",
"Q  c #353535",
"!  c #343436",
"~  c #343536",
"^  c #353536",
"/  c #353537",
"(  c gray21",
")  c #363637",
"_  c #363737",
"`  c #373737",
"'  c #363638",
"]  c #363738",
"[  c #373738",
"{  c #373739",
"}  c #373838",
"|  c #373839",
" . c #37383A",
".. c gray22",
"X. c #383839",
"o. c #383939",
"O. c #393939",
"+. c #38383A",
"@. c #38393A",
"#. c #39393A",
"$. c #39393B",
"%. c #3A3A3A",
"&. c #3A3A3B",
"*. c gray23",
"=. c #393A3C",
"-. c #3A3A3C",
";. c #3A3B3C",
":. c #3B3B3C",
">. c #3A3B3D",
",. c #3B3B3D",
"<. c #3B3C3C",
"1. c #3B3C3D",
"2. c #3B3C3E",
"3. c #3C3C3C",
"4. c #3C3C3D",
"5. c gray24",
"6. c #3C3C3E",
"7. c #3C3D3E",
"8. c #3D3D3E",
"9. c #3C3D3F",
"0. c #3D3D3F",
"q. c #3E3E3E",
"w. c #3E3E3F",
"e. c #3E3F3F",
"r. c #3F3F3F",
"t. c #3D3E40",
"y. c #3E3E40",
"u. c #3F3F40",
"i. c #3E3F41",
"p. c #3F3F41",
"a. c #3F4040",
"s. c #3F4042",
"d. c gray25",
"f. c #404041",
"g. c #404141",
"h. c #424241",
"j. c #404042",
"k. c #404142",
"l. c #414142",
"z. c #404143",
"x. c #414143",
"c. c #414242",
"v. c gray26",
"b. c #424243",
"n. c #424343",
"m. c #414244",
"M. c #424244",
"N. c #424344",
"B. c #434344",
"V. c #424345",
"C. c #434345",
"Z. c #434445",
"A. c #434446",
"S. c #444444",
"D. c #444445",
"F. c #444446",
"G. c #454546",
"H. c #444547",
"J. c #454547",
"K. c #454647",
"L. c #464647",
"P. c gray28",
"I. c #454648",
"U. c #464648",
"Y. c #464748",
"T. c #474748",
"R. c #464749",
"E. c #474749",
"W. c #474849",
"Q. c #47484A",
"!. c #494949",
"~. c #48484A",
"^. c #48494A",
"/. c #49494A",
"(. c #48494B",
"). c gray29",
"_. c #494A4C",
"`. c #4A4A4C",
"'. c #4B4B4C",
"]. c #4A4B4D",
"[. c #4C4C4C",
"{. c #4C4C4D",
"}. c gray30",
"|. c #4C4C4E",
" X c #4D4D4E",
".X c #4E4E4E",
"XX c #4E4E4F",
"oX c gray31",
"OX c #4E4E50",
"+X c #4F4F50",
"@X c #4F5052",
"#X c #505051",
"$X c #515151",
"%X c #505052",
"&X c #515153",
"*X c gray32",
"=X c #525253",
"-X c #525254",
";X c #525355",
":X c #545455",
">X c #545456",
",X c #555556",
"<X c #555557",
"1X c #565656",
"2X c #565757",
"3X c gray34",
"4X c #575758",
"5X c #575759",
"6X c gray35",
"7X c #58585A",
"8X c #5B5B5B",
"9X c #5A5B5D",
"0X c #5B5B5D",
"qX c #5B5C5E",
"wX c gray36",
"eX c #5C5C5D",
"rX c #5D5D5F",
"tX c #5E5E60",
"yX c #5F5F61",
"uX c #5F6062",
"iX c #606163",
"pX c #626263",
"aX c #626264",
"sX c #646466",
"dX c #646567",
"fX c #656567",
"gX c #666668",
"hX c #666769",
"jX c #676769",
"kX c #676869",
"lX c #67686A",
"zX c #68686A",
"xX c #68696B",
/* pixels */
"/.E R.(./.`.~.^.~.k.-.(.i.> w.E.F.Q.C.(.E.> |.) ].} @X1.V.F.> T.",
"6.8.c V L.6.s.z.z.j.j.x.M.> `.i.Q ) ^ ,.z.5 A.7.$.;.L [ [ o.> b.",
"c $.$.h C.+.$.) $.U X./ $.> f.X.V ' T +.+., #.N / Y W F 9 { - *.",
"q q h h X j z u f r u j 5 , $ j d 3 q e j > r f z d 7 r @ r , @ ",
"%Xb. XG.f.G.L.q.n.B.G.G.%.> ( L.5.L.G.> O.f.>XK.u.5X> B.-XG.L.G.",
"+.y.:.t.U.x.p.i.-.9.z.j.[ > 3.Q j.s.y.>  Xs.x.X.p.p.+.u.y.z.0.p.",
"{ +.) d F.+.+.+.#.$.X.{ T > ..[ { @.' > d.X.W ) / ` 8 ( Y $.W ^ ",
", i g 5 . h z m n h B B 9 > q B d q h > 5 n c v M 9 . 2 f c u B ",
"gX Xd v.$XrX2XzXv.c.v.zXlXv.d S.hXv.lXdXgXV > v.sXpXgXlXv.> v.eX",
"p.w.v 9XM.M.{ +.[ M.V.V.x.s.K N [ ,.l.:.M.$.> <XP ) M.V.8.> x.8.",
" .! 3 '.+.K ' { ) [ +.$.! ! n ~ { [ Y [ ' N > W.A +.+.^ R > $.^ ",
"u j o > l l l j 2 r d M l q # q c 3 u q h   > 5 d h l l r > h p ",
"v./.v.* v.lXgXhXzXv.v.v.> A v.v.v.v.5 v.v.lXv.pXv.v.v.:XoX> v.+X",
"C.M.m.=.E.{ ^ p.J.F.8.I.2.uXM.i.F.I.y 6XI.m.H.y.H.X.C.M.H.> A.w.",
"X.,.Y S w.F =.) X.#.! { i .X' X.$.) J <X-.-.+.+.&./ -.F +.> [ #.",
"v z z   h k z h c d 3 M . . u r h z 0 j.r d d f M 7 x h s > z $ ",
"v.yXP.gX,X1 h v.zXgXv.v.* < g.jXqXhXsXgXrXh., r.xXaX..A v.v.aXoX",
"j.L u.I.I.4 4.J.g ^ #.C.=.> _.I.M.J.y.I.P C.h 7XJ.F.6.a.C.F.A.M.",
"&.@.,.6.2.2 E 0.7 { %.u F > 7.W ,.,.0.Q ,.r 1 |.{ 6.P O.Y -.6.,.",
"d d u s f % % r 7 q 9 - . > 7 r j q 3 1 5 + * > 1 r X # a r q u ",
"v.v.v.v.*X5 > E v.#XOX- > v.).v.v.hXv.> O.lXv.v.v.h.xX!.n A v.$X",
"F.F.Z.h j.w > 8Xy.x.x.6.> A.H.A.C.C.F., $XN.H.A.J. .E.J.p.wXI.&.",
"0.6.>.r Y T > *XQ &.&.S > ` ) &.=.-.#.> 5XK W [ -.9.^ | f 4X-.) ",
"D L Z U l O > T.K F d - > h 5 V T H H > P A F C U U H a & ( 9 u ",
"v.kXfXv..., v.fXsXlXzXtXxXv.1 d.v.hXiX3Xv.> v.=XxXgXS.q v.zXgX[.",
"H.D.,.e.,.> ;XI.U.j.H.H.C.R.2 0XF.H.F.C._ > ~.x.H.H.>.q {.J.R.F.",
"( K n A ) > '.6.,.$.4.-.u E 1 1X-.0.6.b f > %.$.I ,.$.9 O.-.,.X.",
"h f r C 7 > w G A v N U 3 w > }.d f C v 7 , F f h d h - d n c a ",
"w.E h > K S.K O.K w.* - K K f.K.Y.P > r XXL.C.K T.K P > V U.K K ",
"<.I.u.; ) A.I.H./ H.N > I.*.p.w.u R.6 $Xq I.-.M.A.C.J.v &Xz.R.J.",
"Q ] A > W -.-.P 6.{ t > $.' { &.6.,.- oX>.$.-.1.&.{ A q D.6.T -.",
"v S 2 - v 9 q V H D = , V H c n V c - n a n h F C d f : V F C v "
};
